<svg width="21" height="21" viewBox="0 0 21 21" fill="none" xmlns="http://www.w3.org/2000/svg">
<path d="M17.8906 1.20679H3.89062C2.79062 1.20679 1.89062 2.10679 1.89062 3.20679V17.2068C1.89062 18.3078 2.79062 19.2068 3.89062 19.2068H10.8906V12.2068H8.89062V9.73179H10.8906V7.68179C10.8906 5.51779 12.1026 3.99779 14.6566 3.99779L16.4596 3.99979V6.60479H15.2626C14.2686 6.60479 13.8906 7.35079 13.8906 8.04279V9.73279H16.4586L15.8906 12.2068H13.8906V19.2068H17.8906C18.9906 19.2068 19.8906 18.3078 19.8906 17.2068V3.20679C19.8906 2.10679 18.9906 1.20679 17.8906 1.20679Z" fill="#757575"/>
</svg>
