<svg width="25" height="25" viewBox="0 0 25 25" fill="none" xmlns="http://www.w3.org/2000/svg">
<path d="M20.6729 4.20679H4.67285C3.57285 4.20679 2.67285 5.10679 2.67285 6.20679V18.2068C2.67285 19.3068 3.57285 20.2068 4.67285 20.2068H20.6729C21.7729 20.2068 22.6729 19.3068 22.6729 18.2068V6.20679C22.6729 5.10679 21.7729 4.20679 20.6729 4.20679ZM20.2729 8.45679L13.7329 12.5468C13.0829 12.9568 12.2629 12.9568 11.6129 12.5468L5.07285 8.45679C4.97258 8.4005 4.88477 8.32445 4.81474 8.23324C4.74471 8.14203 4.69391 8.03756 4.66543 7.92616C4.63694 7.81475 4.63135 7.69872 4.64901 7.58509C4.66666 7.47147 4.70719 7.3626 4.76813 7.26509C4.82908 7.16758 4.90918 7.08344 5.00358 7.01778C5.09798 6.95212 5.20472 6.9063 5.31735 6.88309C5.42997 6.85987 5.54613 6.85975 5.65881 6.88274C5.77148 6.90572 5.87832 6.95132 5.97285 7.01679L12.6729 11.2068L19.3729 7.01679C19.4674 6.95132 19.5742 6.90572 19.6869 6.88274C19.7996 6.85975 19.9157 6.85987 20.0284 6.88309C20.141 6.9063 20.2477 6.95212 20.3421 7.01778C20.4365 7.08344 20.5166 7.16758 20.5776 7.26509C20.6385 7.3626 20.679 7.47147 20.6967 7.58509C20.7143 7.69872 20.7088 7.81475 20.6803 7.92616C20.6518 8.03756 20.601 8.14203 20.531 8.23324C20.4609 8.32445 20.3731 8.4005 20.2729 8.45679Z" fill="#757575"/>
</svg>
