<svg width="29" height="29" viewBox="0 0 29 29" fill="none" xmlns="http://www.w3.org/2000/svg">
<path d="M5.11413 14.2069C5.11413 12.2119 6.73579 10.5902 8.73079 10.5902H13.3975V8.37354H8.73079C7.1837 8.37354 5.69997 8.98812 4.606 10.0821C3.51204 11.176 2.89746 12.6598 2.89746 14.2069C2.89746 15.754 3.51204 17.2377 4.606 18.3317C5.69997 19.4256 7.1837 20.0402 8.73079 20.0402H13.3975V17.8235H8.73079C6.73579 17.8235 5.11413 16.2019 5.11413 14.2069ZM9.89746 15.3735H19.2308V13.0402H9.89746V15.3735ZM20.3975 8.37354H15.7308V10.5902H20.3975C22.3925 10.5902 24.0141 12.2119 24.0141 14.2069C24.0141 16.2019 22.3925 17.8235 20.3975 17.8235H15.7308V20.0402H20.3975C21.9446 20.0402 23.4283 19.4256 24.5223 18.3317C25.6162 17.2377 26.2308 15.754 26.2308 14.2069C26.2308 12.6598 25.6162 11.176 24.5223 10.0821C23.4283 8.98812 21.9446 8.37354 20.3975 8.37354Z" fill="#757575"/>
</svg>
